# xmcd CD database file
#
# Track frame offsets:
#	150
#	22435
#	54111
#	75647
#	116258
#	151215
#	184686
#	213412
#
# Disc length: 3283 seconds
#
# Revision: 0
# Processed by: cddbd v1.5.2PL0 Copyright (c) Steve Scherf et al.
# Submitted via: CDex 1.51
#
DISCID=5e0cd108
DTITLE=Ronnie Lynn Patterson - Music
DYEAR=2009
DGENRE=Jazz
TTITLE0=Lazy bird
TTITLE1=Moon and sand
TTITLE2=Evidence
TTITLE3=All blues
TTITLE4=Blues connotation
TTITLE5=It's easy to remember
TTITLE6=Summer night
TTITLE7=Blue in green
EXTD=YEAR: 2009
EXTT0=
EXTT1=
EXTT2=
EXTT3=
EXTT4=
EXTT5=
EXTT6=
EXTT7=
PLAYORDER=
